<?xml version="1.0" encoding="utf-8"?>
<!-- Generator: Adobe Illustrator 15.0.0, SVG Export Plug-In . SVG Version: 6.00 Build 0)  -->
<!DOCTYPE svg PUBLIC "-//W3C//DTD SVG 1.1//EN" "http://www.w3.org/Graphics/SVG/1.1/DTD/svg11.dtd">
<svg version="1.1" id="图层_1" xmlns="http://www.w3.org/2000/svg" xmlns:xlink="http://www.w3.org/1999/xlink" x="0px" y="0px"
	 width="46.325px" height="46px" viewBox="0 0 46.325 46" enable-background="new 0 0 46.325 46" xml:space="preserve">
<g>
	<path fill="#58595B" d="M14,0H9C8.734,0,8.48,0.105,8.293,0.292L0.586,8H14V0z"/>
	<path fill="#58595B" d="M30,16.281V10H0v21c0,0.553,0.447,1,1,1h15.051C16.514,24.103,22.375,17.646,30,16.281z"/>
	<path fill="#58595B" d="M21.707,0.292C21.52,0.105,21.266,0,21,0h-5v8h13.414L21.707,0.292z"/>
</g>
<path fill="#58595B" d="M45.742,29.667H42.41c-0.232-0.922-0.529-1.945-0.906-2.721l2.371-2.371c0.109-0.109,0.17-0.258,0.17-0.413
	s-0.061-0.303-0.17-0.413l-3.301-3.299c-0.229-0.228-0.598-0.228-0.825,0l-2.372,2.371c-0.775-0.378-1.798-0.675-2.719-0.907v-3.331
	c0-0.323-0.261-0.583-0.583-0.583h-3.5c-0.322,0-0.583,0.261-0.583,0.583v3.331c-0.922,0.232-1.944,0.529-2.72,0.907L24.9,20.451
	c-0.229-0.228-0.598-0.228-0.825,0l-3.3,3.299c-0.228,0.228-0.228,0.597,0,0.825l2.372,2.372c-0.377,0.773-0.675,1.797-0.909,2.72
	h-3.33c-0.321,0-0.583,0.261-0.583,0.583v3.5c0,0.322,0.262,0.583,0.583,0.583h3.33c0.234,0.923,0.532,1.947,0.909,2.72
	l-2.373,2.372c-0.109,0.109-0.171,0.258-0.171,0.413c0,0.154,0.062,0.303,0.171,0.412l3.301,3.299c0.22,0.22,0.606,0.219,0.825,0
	l2.371-2.371c0.773,0.377,1.798,0.675,2.721,0.908v3.331c0,0.322,0.261,0.583,0.583,0.583h3.5c0.322,0,0.583-0.261,0.583-0.583
	v-3.331c0.923-0.233,1.946-0.531,2.72-0.907l2.372,2.37c0.229,0.229,0.598,0.229,0.825,0l3.3-3.299c0.228-0.229,0.228-0.598,0-0.825
	l-2.371-2.372c0.376-0.772,0.674-1.797,0.908-2.72h3.33c0.322,0,0.583-0.261,0.583-0.583v-3.5
	C46.325,29.928,46.064,29.667,45.742,29.667z M32.325,36.667c-2.573,0-4.667-2.094-4.667-4.667s2.094-4.666,4.667-4.666
	s4.667,2.093,4.667,4.666S34.898,36.667,32.325,36.667z"/>
</svg>
