<?xml version="1.0" encoding="utf-8"?>
<!-- Generator: Adobe Illustrator 15.0.0, SVG Export Plug-In . SVG Version: 6.00 Build 0)  -->
<!DOCTYPE svg PUBLIC "-//W3C//DTD SVG 1.1//EN" "http://www.w3.org/Graphics/SVG/1.1/DTD/svg11.dtd">
<svg version="1.1" id="图层_1" xmlns="http://www.w3.org/2000/svg" xmlns:xlink="http://www.w3.org/1999/xlink" x="0px" y="0px"
	 width="48px" height="41.455px" viewBox="0 0 48 41.455" enable-background="new 0 0 48 41.455" xml:space="preserve">
<g>
	<path fill="#58595B" d="M46.909,8.727H33.755C33.208,3.824,29.044,0,24,0c-5.045,0-9.209,3.824-9.755,8.727H1.091
		C0.488,8.727,0,9.215,0,9.818v9.818h19.636v-2.182c0-0.603,0.489-1.091,1.092-1.091h6.546c0.603,0,1.091,0.488,1.091,1.091v2.182
		H48V9.818C48,9.215,47.512,8.727,46.909,8.727z M16.451,8.727C16.983,5.033,20.16,2.182,24,2.182s7.017,2.851,7.549,6.545H16.451z"
		/>
	<path fill="#58595B" d="M28.364,26.183c0,0.602-0.488,1.09-1.091,1.09h-6.546c-0.603,0-1.092-0.488-1.092-1.09v-4.364H0v18.546
		c0,0.603,0.488,1.091,1.091,1.091h45.818c0.603,0,1.091-0.488,1.091-1.091V21.818H28.364V26.183z"/>
</g>
</svg>
