<?xml version="1.0" encoding="utf-8"?>
<!-- Generator: Adobe Illustrator 15.0.0, SVG Export Plug-In . SVG Version: 6.00 Build 0)  -->
<!DOCTYPE svg PUBLIC "-//W3C//DTD SVG 1.1//EN" "http://www.w3.org/Graphics/SVG/1.1/DTD/svg11.dtd">
<svg version="1.1" id="图层_1" xmlns="http://www.w3.org/2000/svg" xmlns:xlink="http://www.w3.org/1999/xlink" x="0px" y="0px"
	 width="183.32px" height="63.48px" viewBox="0 0 183.32 63.48" enable-background="new 0 0 183.32 63.48" xml:space="preserve"
	 fill="#393939">
<g id="图层_1_1_">
	<g>
		<path fill="#393939" d="M129.038,37.629c-0.531,1.025-2.863,2.445-4.51,1.934c-1.891-0.588-2.004-4.408-1.307-7.704h-7.506
			c-1.148,7.183,1.615,14.87,9.027,13.503c1.664-0.309,2.684-1.744,4.082-2.363c0.168,0.885-0.33,1.104-0.217,1.934
			c2.221,0,4.439,0,6.66,0c0.723-4.375,1.471-8.727,2.225-13.073h-7.461C129.915,33.943,129.833,36.096,129.038,37.629z"/>
		<path fill="#393939" d="M91.664,35.051c0.17,10.531,14.25,13.912,20.191,6.016c-1.236-1.127-1.887-2.84-3.223-3.867
			c-1.852,2.953-9.803,3.686-9.451-1.717c4.725,0,9.451,0,14.176,0c0.289-1.254,0.449-2.467,0.494-3.622H91.916
			C91.734,32.889,91.646,33.957,91.664,35.051z"/>
		<path fill="#393939" d="M147.94,37.844c0.564-1.656,0.689-3.916,1.002-5.985h-7.314c-1.291,7.407-2.639,14.759-3.783,22.31
			c2.434,0,4.869,0,7.303,0c0.793-3.576,1.385-7.35,2.148-10.955c1.1,0.711,1.727,1.607,2.793,1.934
			c8.043,2.453,12.666-5.717,13.041-13.288h-7.332C155.507,36.941,152.294,42.559,147.94,37.844z"/>
		<path fill="#FFFFFF" d="M124.526,39.563c1.646,0.512,3.98-0.906,4.512-1.934c0.793-1.533,0.875-3.686,0.992-5.769h-6.811
			C122.522,35.154,122.638,38.975,124.526,39.563z"/>
		<path fill="#FFFFFF" d="M155.798,31.858h-6.854c-0.313,2.069-0.438,4.329-1.004,5.985
			C152.294,42.559,155.507,36.941,155.798,31.858z"/>
		<polygon fill="#393939" points="165.448,45.789 171.46,45.789 171.907,39.369 165.897,39.369 		"/>
		<path fill="#FFFFFF" d="M99.61,30.755c2.361,0,4.727,0,7.088,0c0.445-1.533,0.012-2.861-0.645-3.867
			C102.616,25.36,100.177,28.03,99.61,30.755z"/>
		<path fill="#393939" d="M99.61,30.755c2.361,0,4.727,0,7.088,0c0.445-1.533,0.012-2.861-0.645-3.867
			C102.616,25.36,100.177,28.03,99.61,30.755z"/>
		<path fill="#FFFFFF" d="M130.542,27.962c-1.277-1.975-3.697-1.895-5.156-0.859c-0.891,0.635-1.705,2.582-2.166,4.756h6.811
			C130.108,30.46,130.204,29.091,130.542,27.962z"/>
		<path fill="#393939" d="M130.542,27.962c-1.277-1.975-3.697-1.895-5.156-0.859c-0.891,0.635-1.705,2.582-2.166,4.756h6.811
			C130.108,30.46,130.204,29.091,130.542,27.962z"/>
		<path fill="#FFFFFF" d="M154.599,26.673c-4.148-1.002-5.148,1.844-5.654,5.186h6.854
			C155.917,29.802,155.556,27.833,154.599,26.673z"/>
		<path fill="#393939" d="M154.599,26.673c-4.148-1.002-5.148,1.844-5.654,5.186h6.854
			C155.917,29.802,155.556,27.833,154.599,26.673z"/>
		<g>
			<path fill="#393939" d="M61.914,36.16c1.317,2.156,2.937,3.965,4.149,6.24c3.711-3.211,7.162-6.682,10.471-10.292
				c-0.063-0.084-0.125-0.166-0.186-0.248h-9.972C64.769,33.174,63.099,34.426,61.914,36.16z"/>
			<path fill="#393939" d="M27.223,31.858h-3.445C24.811,32.259,26.07,32.245,27.223,31.858z"/>
			<path fill="#393939" d="M62.972,32.341c0.346-0.115,0.639-0.279,0.881-0.48h-3.547C61.104,32.401,62.045,32.644,62.972,32.341z"
				/>
			<path fill="#393939" d="M41.632,35.838c1.841-0.395,2.843-2.18,2.935-3.979h-7.899C36.627,35.35,39.654,36.266,41.632,35.838z"/>
			<path fill="#393939" d="M57.043,37.645c2.087-1.885,1.351-4.334-0.169-5.784h-5.171C49.358,34.762,53.396,40.939,57.043,37.645z"
				/>
			<path fill="#393939" d="M36.367,38.607c1.167-4.021-1.795-6.37-5.334-5.309C28.7,34,27.856,35.582,27.674,37.143
				C26.969,43.207,35.025,43.23,36.367,38.607z"/>
			<path fill="#393939" d="M49.14,44.363c3.297-2.844,0.471-8.969-3.754-7.537C39.269,38.898,44.438,48.418,49.14,44.363z"/>
			<path fill="#393939" d="M59.325,39.143c-5.313,1.297-2.016,10.543,2.766,8.035C65.853,45.203,63.405,38.146,59.325,39.143z"/>
			<path fill="#393939" d="M37.75,42.73c-5.505,1.402-5.167,10.207,0.395,9.689C43.738,51.9,43.774,41.195,37.75,42.73z"/>
			<path fill="#393939" d="M51.226,46.088c-1.809,0.619-2.589,2.35-2.767,3.375c-1.392,7.994,9.5,7.15,7.903-0.59
				C55.833,46.311,53.137,45.434,51.226,46.088z"/>
			<path fill="#393939" d="M43.588,53.049c-6.027,1.643-4.085,12.781,2.173,9.98C49.935,61.162,49.76,51.365,43.588,53.049z"/>
		</g>
	</g>
</g>
<g>
	<path fill="#393939" d="M0.002,31.858h23.777c-0.871-0.336-1.579-0.965-1.923-1.908c-1.148-3.152,0.957-5.344,3.359-5.957
		c3.27-0.834,5.39,0.838,5.334,3.615c-0.044,2.201-1.558,3.662-3.325,4.25h9.445c0.002-0.166,0.008-0.334,0.024-0.512
		c0.121-1.318,0.886-2.785,2.766-3.377c3.604-1.135,5.236,1.391,5.108,3.889h0.003h7.133c0.399-0.494,0.981-0.893,1.784-1.133
		c1.088-0.328,2.402,0.193,3.387,1.133h3.431c-2.153-1.463-3.251-5.133-0.101-6.283c3.617-1.324,6.013,4.311,3.646,6.283h2.525
		c0.568-0.465,1.132-0.938,1.662-1.441c-1.691-2.713-3.885-4.854-5.334-7.842c1.388-0.943,2.787-1.875,3.951-3.041
		c0.197-0.016,0.396-0.029,0.593-0.045c2.93,4.242,6.031,8.289,9.101,12.371h15.564c1.218-6.895,6.724-11.977,13.925-11.199
		c5.178,0.557,8.25,5.064,8.012,11.199h1.865c1.031-6.449,5.217-12.492,12.033-11.199c1.549,0.293,2.391,1.365,3.65,2.361
		c0.631-4.096,1.607-7.844,2.148-12.028c2.506,0,5.012,0,7.518,0c-1.154,6.991-2.371,13.922-3.574,20.866h4.137
		c0.623-3.568,1.232-7.146,1.801-10.771c2.293,0,4.584,0,6.875,0c0.125,0.697-0.146,1-0.215,1.504
		c2.146-1.045,3.576-2.529,7.088-1.934c4.336,0.736,6.219,5.816,5.953,11.199h20.189V0.001H0.002V31.858z M39.569,18.011
		c-0.069-4.602,8.193-4.713,7.114,1.369C44.894,22.997,39.621,21.437,39.569,18.011z M51.512,28.972
		c-3.821,3.486-9.347-4.225-4.149-6.242C50.944,21.343,54.549,26.2,51.512,28.972z M47.274,13.208
		c0.059-1.257,0.623-2.065,2.174-2.488c2.802-0.761,6.385,3.434,3.359,5.666C51.058,17.675,47.11,16.755,47.274,13.208z
		 M59.416,21.618c-0.29,4.906-8.228,3.125-6.521-2.049c0.193-0.584,0.896-1.283,1.976-1.627
		C57.481,17.114,59.571,18.981,59.416,21.618z M64.571,18.653c-2.074,2.604-6,0.266-5.729-2.74
		C59.216,11.767,66.487,13.821,64.571,18.653z M59.544,10.345c-0.359,6.441-10.188-1.553-4.148-3.282
		C57.05,6.588,59.679,7.932,59.544,10.345z M50.544,0.972c1.938-0.726,5.128,0.833,4.348,3.69
		C53.358,10.267,45.71,2.783,50.544,0.972z M42.335,6.255c0.085-0.838,0.389-1.516,1.581-2.02c2.774-1.172,4.985,1.704,4.938,3.011
		C48.718,11.076,41.876,10.748,42.335,6.255z M36.606,7.742c2.769-0.923,6.242,1.558,5.226,4.566
		c-1.159,3.425-7.801,2.244-7.4-2.079C34.523,9.246,35.089,8.247,36.606,7.742z M38.779,22.507c0.472,5.34-8.498,6.281-7.903,0.168
		c0.142-1.461,1.054-2.721,3.161-3.195C36.815,18.856,38.579,20.247,38.779,22.507z M25.827,14.35
		c1.793-4.209,8.936-2.838,7.903,1.944C32.891,20.185,24.715,19.923,25.827,14.35z M19.97,15.894
		c3.315-0.837,5.43,0.561,5.334,3.404c-0.175,5.203-8.953,5.635-8.891,0.455C16.439,17.544,17.871,16.423,19.97,15.894z"/>
</g>
</svg>
