<?xml version="1.0" encoding="utf-8"?>
<!-- Generator: Adobe Illustrator 15.0.0, SVG Export Plug-In . SVG Version: 6.00 Build 0)  -->
<!DOCTYPE svg PUBLIC "-//W3C//DTD SVG 1.1//EN" "http://www.w3.org/Graphics/SVG/1.1/DTD/svg11.dtd">
<svg version="1.1" xmlns="http://www.w3.org/2000/svg" xmlns:xlink="http://www.w3.org/1999/xlink" x="0px" y="0px" width="147.4px"
	 height="70.87px" viewBox="0 0 147.4 70.87" enable-background="new 0 0 147.4 70.87" xml:space="preserve">
<g id="图层_1">
</g>
<g id="图层_2">
	<g>
		<path d="M100.092,46.46c1.322,0.412,3.197-0.728,3.626-1.554c0.637-1.233,0.702-2.962,0.798-4.637h-5.475
			C98.479,42.918,98.573,45.988,100.092,46.46z"/>
		<path d="M125.227,40.27h-5.51c-0.253,1.663-0.354,3.479-0.807,4.81C122.409,48.868,124.991,44.354,125.227,40.27z"/>
		<path d="M147.347,40.27h-16.228c-0.301,6.084-4.017,12.651-10.481,10.679c-0.857-0.26-1.362-0.98-2.245-1.552
			c-0.613,2.896-1.09,5.93-1.727,8.804c-1.957,0-3.914,0-5.871,0c0.921-6.069,2.004-11.979,3.041-17.931h-3.324
			c-0.605,3.494-1.207,6.99-1.789,10.506c-1.783,0-3.567,0-5.351,0c-0.093-0.666,0.308-0.843,0.173-1.552
			c-1.122,0.495-1.943,1.651-3.281,1.898c-5.958,1.098-8.18-5.081-7.256-10.853H91.51c-0.035,0.928-0.165,1.901-0.396,2.91
			c-3.8,0-7.599,0-11.396,0c-0.283,4.343,6.108,3.754,7.597,1.381c1.074,0.825,1.597,2.203,2.591,3.108
			c-4.775,6.347-16.092,3.63-16.229-4.835c-0.015-0.88,0.056-1.737,0.202-2.564H61.367c0.05,0.067,0.099,0.133,0.149,0.199
			c-2.66,2.902-5.434,5.691-8.416,8.272c-0.975-1.828-2.277-3.282-3.336-5.016c0.953-1.394,2.296-2.401,3.589-3.456h-2.03
			c-0.196,0.162-0.43,0.294-0.709,0.386c-0.744,0.244-1.5,0.05-2.142-0.386h-2.758c1.222,1.166,1.813,3.135,0.136,4.648
			c-2.932,2.65-6.177-2.316-4.292-4.648h-5.733h-0.003c-0.073,1.445-0.878,2.881-2.358,3.199c-1.59,0.341-4.023-0.395-3.99-3.199
			H21.88c-0.926,0.309-1.939,0.321-2.77,0H0V70.87h147.4V40.27H147.347z M36.479,44.261c3.396-1.15,5.667,3.773,3.018,6.059
			C35.717,53.58,31.563,45.927,36.479,44.261z M22.243,44.517c0.146-1.254,0.824-2.527,2.699-3.09
			c2.846-0.854,5.226,1.033,4.288,4.267C28.151,49.409,21.676,49.391,22.243,44.517z M30.342,49.008
			c4.841-1.235,4.813,7.369,0.317,7.787C26.189,57.21,25.917,50.134,30.342,49.008z M36.781,65.323
			c-5.03,2.25-6.591-6.702-1.747-8.022C39.996,55.947,40.135,63.822,36.781,65.323z M38.95,54.419
			c0.144-0.825,0.771-2.216,2.223-2.714c1.537-0.526,3.703,0.18,4.13,2.239C46.584,60.165,37.832,60.844,38.95,54.419z
			 M49.906,52.582c-3.842,2.016-6.493-5.416-2.223-6.459C50.963,45.321,52.93,50.995,49.906,52.582z M137.813,51.466h-4.831
			l0.361-5.16h4.831L137.813,51.466z"/>
	</g>
</g>
</svg>
