<?xml version="1.0" encoding="utf-8"?>
<!-- Generator: Adobe Illustrator 15.0.0, SVG Export Plug-In . SVG Version: 6.00 Build 0)  -->
<!DOCTYPE svg PUBLIC "-//W3C//DTD SVG 1.1//EN" "http://www.w3.org/Graphics/SVG/1.1/DTD/svg11.dtd">
<svg version="1.1" id="图层_1" xmlns="http://www.w3.org/2000/svg" xmlns:xlink="http://www.w3.org/1999/xlink" x="0px" y="0px"
	 width="147.4px" height="30.603px" viewBox="0 40.268 147.4 30.603" enable-background="new 0 40.268 147.4 30.603"
	 xml:space="preserve">
<g id="图层_1_1_">
</g>
<polyline fill="#FFFFFF" points="147.4,40.268 147.4,70.871 0,70.871 0,40.268 "/>
<g id="图层_2">
	<g>
		<path d="M100.264,51.123c-5.958,1.098-8.181-5.082-7.257-10.854H91.51c-0.034,0.928-0.164,1.9-0.396,2.91c-3.8,0-7.599,0-11.396,0
			c-0.282,4.343,6.108,3.754,7.598,1.381c1.074,0.824,1.597,2.203,2.591,3.107c-4.775,6.348-16.092,3.631-16.229-4.834
			c-0.015-0.881,0.057-1.737,0.202-2.564H61.367c0.05,0.066,0.099,0.133,0.149,0.199c-2.66,2.902-5.435,5.691-8.416,8.271
			c-0.976-1.828-2.277-3.281-3.336-5.016c0.952-1.395,2.296-2.4,3.589-3.456h-2.03c-0.196,0.162-0.43,0.294-0.709,0.386
			c-0.744,0.244-1.5,0.051-2.142-0.386h-2.759c1.223,1.166,1.813,3.135,0.137,4.647c-2.933,2.65-6.178-2.315-4.292-4.647h-5.733
			h-0.003c-0.073,1.444-0.878,2.881-2.358,3.198c-1.59,0.342-4.022-0.395-3.989-3.198H21.88c-0.926,0.31-1.938,0.321-2.77,0H0
			v30.603h147.4V40.27h-0.053h-16.229c-0.301,6.084-4.017,12.651-10.48,10.679c-0.857-0.26-1.362-0.98-2.245-1.552
			c-0.613,2.896-1.09,5.931-1.728,8.804c-1.957,0-3.914,0-5.871,0c0.921-6.068,2.004-11.979,3.041-17.931h-3.323
			c-0.605,3.494-1.207,6.989-1.789,10.506c-1.783,0-3.567,0-5.352,0c-0.093-0.666,0.309-0.843,0.173-1.552 M36.479,44.261
			c3.396-1.15,5.667,3.773,3.018,6.059C35.717,53.58,31.563,45.927,36.479,44.261z M22.243,44.517
			c0.146-1.254,0.824-2.527,2.699-3.09c2.846-0.854,5.226,1.033,4.288,4.267C28.151,49.41,21.676,49.391,22.243,44.517z
			 M30.342,49.007c4.842-1.234,4.813,7.369,0.317,7.787C26.189,57.21,25.917,50.134,30.342,49.007z M36.781,65.324
			c-5.03,2.25-6.591-6.703-1.747-8.023C39.996,55.947,40.135,63.822,36.781,65.324z M38.95,54.419
			c0.144-0.826,0.771-2.217,2.223-2.715c1.537-0.525,3.703,0.18,4.131,2.239C46.584,60.166,37.832,60.843,38.95,54.419z
			 M49.906,52.582c-3.842,2.017-6.493-5.416-2.223-6.459C50.963,45.321,52.93,50.996,49.906,52.582z M137.813,51.466h-4.831
			l0.36-5.16h4.831L137.813,51.466z"/>
	</g>
</g>
</svg>
