<?xml version="1.0" encoding="utf-8"?>
<!-- Generator: Adobe Illustrator 15.0.0, SVG Export Plug-In . SVG Version: 6.00 Build 0)  -->
<!DOCTYPE svg PUBLIC "-//W3C//DTD SVG 1.1//EN" "http://www.w3.org/Graphics/SVG/1.1/DTD/svg11.dtd">
<svg version="1.1" id="图层_1" xmlns="http://www.w3.org/2000/svg" xmlns:xlink="http://www.w3.org/1999/xlink" x="0px" y="0px"
	 width="156.152px" height="62.717px" viewBox="0 0 156.152 62.717" enable-background="new 0 0 156.152 62.717"
	 xml:space="preserve">
<path fill="#393939" d="M112.875,36.812c-0.532,1.025-2.864,2.445-4.51,1.934c-1.891-0.588-2.004-4.408-1.307-7.703h-7.506
	c-1.148,7.183,1.615,14.869,9.027,13.502c1.664-0.308,2.684-1.744,4.081-2.362c0.168,0.884-0.33,1.103-0.216,1.933
	c2.221,0,4.439,0,6.66,0c0.723-4.375,1.471-8.726,2.225-13.072h-7.461C113.751,33.126,113.669,35.279,112.875,36.812z"/>
<path fill="#393939" d="M75.264,34.241c0.171,10.531,14.25,13.912,20.191,6.015c-1.236-1.127-1.887-2.84-3.223-3.866
	c-1.852,2.952-9.804,3.685-9.451-1.718c4.725,0,9.451,0,14.176,0c0.289-1.254,0.449-2.467,0.494-3.621H75.516
	C75.334,32.078,75.247,33.146,75.264,34.241z"/>
<path fill="#393939" d="M130.991,37.034c0.564-1.656,0.689-3.915,1.002-5.984h-7.314c-1.292,7.406-2.639,14.758-3.784,22.309
	c2.435,0,4.869,0,7.304,0c0.793-3.575,1.385-7.35,2.148-10.954c1.1,0.711,1.727,1.606,2.792,1.933
	c8.044,2.453,12.667-5.717,13.041-13.287h-7.332C138.556,36.131,135.344,41.749,130.991,37.034z"/>
<polygon fill="#393939" points="149.693,44.85 155.704,44.85 156.152,38.43 150.142,38.43 "/>
<g>
	<path fill="#393939" d="M45.53,35.399c1.317,2.156,2.937,3.965,4.149,6.24c3.711-3.211,7.162-6.682,10.471-10.291
		c-0.063-0.084-0.124-0.166-0.186-0.248h-9.972C48.385,32.413,46.715,33.665,45.53,35.399z"/>
	<path fill="#393939" d="M10.839,31.098H7.394C8.427,31.499,9.686,31.484,10.839,31.098z"/>
	<path fill="#393939" d="M46.588,31.58c0.346-0.114,0.639-0.278,0.881-0.479h-3.546C44.721,31.641,45.661,31.883,46.588,31.58z"/>
	<path fill="#393939" d="M25.248,35.078c1.841-0.396,2.843-2.181,2.935-3.979h-7.899C20.243,34.588,23.27,35.504,25.248,35.078z"/>
	<path fill="#393939" d="M40.659,36.883c2.087-1.885,1.351-4.334-0.169-5.783h-5.171C32.975,34,37.012,40.178,40.659,36.883z"/>
	<path fill="#393939" d="M19.983,37.846c1.167-4.021-1.795-6.369-5.334-5.308c-2.333,0.7-3.177,2.283-3.359,3.843
		C10.585,42.447,18.641,42.469,19.983,37.846z"/>
	<path fill="#393939" d="M32.756,43.602c3.297-2.844,0.471-8.969-3.754-7.537C22.885,38.137,28.054,47.658,32.756,43.602z"/>
	<path fill="#393939" d="M42.941,38.381c-5.313,1.297-2.016,10.543,2.766,8.035C49.469,44.443,47.021,37.385,42.941,38.381z"/>
	<path fill="#393939" d="M21.366,41.969c-5.505,1.402-5.167,10.207,0.395,9.69C27.354,51.139,27.39,40.434,21.366,41.969z"/>
	<path fill="#393939" d="M34.841,45.327c-1.808,0.619-2.588,2.35-2.766,3.376c-1.391,7.993,9.5,7.149,7.903-0.591
		C39.449,45.549,36.753,44.672,34.841,45.327z"/>
	<path fill="#393939" d="M27.204,52.288c-6.027,1.643-4.085,12.781,2.173,9.98C33.551,60.401,33.376,50.604,27.204,52.288z"/>
</g>
<path fill="#EE793F" d="M124.659,31.095c0.623-3.568,1.232-7.147,1.801-10.771c2.292,0,4.583,0,6.874,0
	c0.125,0.697-0.146,0.999-0.214,1.503c2.146-1.045,3.575-2.528,7.088-1.933c4.335,0.736,6.219,5.816,5.953,11.199L124.659,31.095z"
	/>
<path fill="#EE793F" d="M99.585,31.042c1.032-6.45,5.218-12.493,12.034-11.2c1.548,0.294,2.391,1.366,3.65,2.362
	c0.631-4.096,1.607-7.845,2.148-12.028c2.506,0,5.012,0,7.518,0c-1.155,6.991-2.371,13.923-3.574,20.866H99.585z"/>
<path fill="#EE793F" d="M75.501,31.019c1.218-6.896,6.722-11.977,13.924-11.2c5.18,0.558,8.25,5.065,8.014,11.2H75.501z"/>
<path fill="#EE793F" d="M49.963,31.064c0.568-0.465,1.132-0.938,1.662-1.441c-1.691-2.714-3.885-4.854-5.334-7.842
	c1.388-0.944,2.787-1.876,3.951-3.042c0.197-0.015,0.396-0.029,0.593-0.044c2.93,4.242,6.03,8.289,9.101,12.371L49.963,31.064z"/>
<path fill="#EE793F" d="M43.892,31.064c-2.153-1.463-3.251-5.133-0.101-6.284c3.617-1.324,6.013,4.312,3.646,6.284H43.892z"/>
<path fill="#EE793F" d="M35.291,31.064c0.399-0.494,0.981-0.893,1.784-1.133c1.088-0.328,2.402,0.193,3.387,1.133H35.291z"/>
<path fill="#EE793F" d="M20.256,31.064c0.002-0.166,0.008-0.334,0.024-0.512c0.121-1.318,0.886-2.785,2.766-3.377
	c3.604-1.135,5.236,1.391,5.108,3.889h0.003H20.256z"/>
<path fill="#EE793F" d="M7.366,31.064c-0.871-0.336-1.579-0.965-1.923-1.908c-1.148-3.152,0.957-5.344,3.359-5.957
	c3.27-0.835,5.39,0.838,5.334,3.615c-0.044,2.201-1.558,3.662-3.325,4.25H7.366z"/>
<path fill="#EE793F" d="M23.156,17.215c-0.069-4.602,8.193-4.712,7.113,1.37C28.481,22.203,23.208,20.642,23.156,17.215z"/>
<path fill="#EE793F" d="M35.099,28.177c-3.821,3.485-9.347-4.226-4.149-6.242C34.532,20.547,38.136,25.406,35.099,28.177z"/>
<path fill="#EE793F" d="M30.862,12.413c0.058-1.257,0.622-2.065,2.173-2.487c2.802-0.761,6.385,3.434,3.359,5.666
	C34.646,16.88,30.698,15.959,30.862,12.413z"/>
<path fill="#EE793F" d="M43.003,20.824c-0.29,4.906-8.228,3.125-6.52-2.049c0.193-0.584,0.896-1.283,1.975-1.627
	C41.068,16.32,43.158,18.187,43.003,20.824z"/>
<path fill="#EE793F" d="M48.159,17.859c-2.074,2.603-6,0.266-5.729-2.74C42.803,10.972,50.075,13.027,48.159,17.859z"/>
<path fill="#EE793F" d="M43.131,9.55c-0.36,6.44-10.187-1.553-4.149-3.281C40.637,5.793,43.266,7.136,43.131,9.55z"/>
<path fill="#EE793F" d="M34.131,0.177c1.937-0.727,5.128,0.832,4.347,3.689C36.945,9.472,29.297,1.988,34.131,0.177z"/>
<path fill="#EE793F" d="M25.922,5.46c0.085-0.838,0.389-1.516,1.581-2.02c2.774-1.172,4.986,1.703,4.939,3.011
	C32.305,10.281,25.463,9.953,25.922,5.46z"/>
<path fill="#EE793F" d="M20.193,6.947c2.769-0.924,6.242,1.558,5.226,4.566c-1.159,3.424-7.801,2.244-7.4-2.08
	C18.11,8.451,18.676,7.452,20.193,6.947z"/>
<path fill="#EE793F" d="M22.366,21.712c0.472,5.34-8.498,6.28-7.903,0.168c0.142-1.461,1.054-2.722,3.161-3.195
	C20.402,18.062,22.167,19.452,22.366,21.712z"/>
<path fill="#EE793F" d="M9.415,13.554c1.793-4.209,8.936-2.838,7.903,1.944C16.479,19.39,8.302,19.128,9.415,13.554z"/>
<path fill="#EE793F" d="M3.557,15.099c3.315-0.838,5.43,0.561,5.334,3.404C8.716,23.706-0.062,24.138,0,18.958
	C0.026,16.75,1.458,15.628,3.557,15.099z"/>
<path fill="#393939" d="M83.241,30.561c2.361,0,4.726,0,7.088,0c0.445-1.533,0.012-2.861-0.646-3.867
	C86.247,25.167,83.806,27.836,83.241,30.561z"/>
<path fill="#393939" d="M114.416,27.245c-1.277-1.975-3.698-1.895-5.156-0.859c-0.892,0.635-1.705,2.582-2.166,4.756h6.811
	C113.982,29.743,114.077,28.374,114.416,27.245z"/>
<path fill="#393939" d="M137.638,25.914c-4.149-1.002-5.148,1.844-5.654,5.186h6.854C138.957,29.042,138.595,27.074,137.638,25.914z
	"/>
</svg>
