<?xml version="1.0" encoding="utf-8"?>
<!-- Generator: Adobe Illustrator 17.0.2, SVG Export Plug-In . SVG Version: 6.00 Build 0)  -->
<!DOCTYPE svg PUBLIC "-//W3C//DTD SVG 1.1//EN" "http://www.w3.org/Graphics/SVG/1.1/DTD/svg11.dtd">
<svg version="1.1" id="Layer_1" xmlns="http://www.w3.org/2000/svg" xmlns:xlink="http://www.w3.org/1999/xlink" x="0px" y="0px"
	 width="56px" height="32px" viewBox="0 0 56 32" enable-background="new 0 0 56 32" xml:space="preserve">
<g>
	<path fill="#FD8549" d="M45.5,11c-1.924,0-3.723,0.529-5.276,1.436L33.423,2h9.599c-0.013,0.498-0.129,1.331-0.699,1.986
		C41.736,4.659,40.787,5,39.5,5C39.224,5,39,5.224,39,5.5S39.224,6,39.5,6c1.589,0,2.792-0.456,3.576-1.356
		c1.163-1.336,0.93-3.136,0.919-3.212C43.961,1.185,43.75,1,43.5,1h-11c-0.184,0-0.353,0.101-0.439,0.262
		c-0.088,0.161-0.08,0.357,0.021,0.512l2.831,4.344H19.048L15.965,1H21.5C21.776,1,22,0.776,22,0.5S21.776,0,21.5,0h-9
		C12.224,0,12,0.224,12,0.5S12.224,1,12.5,1h2.314c0.01,0.023,0.012,0.048,0.025,0.07l3.412,5.662l-3.054,5.39
		C13.782,11.411,12.19,11,10.5,11C4.71,11,0,15.71,0,21.5S4.71,32,10.5,32c5.588,0,10.157-4.391,10.42-10H32
		c0.029,0.579-0.096,1.368-0.644,1.989C30.764,24.66,29.803,25,28.5,25c-0.276,0-0.5,0.224-0.5,0.5s0.224,0.5,0.5,0.5
		c1.608,0,2.824-0.457,3.614-1.358c1.142-1.304,0.927-3.036,0.918-3.109c-0.033-0.249-0.245-0.435-0.496-0.435h-3.928l7.047-13.84
		l3.73,5.724C36.735,14.889,35,17.992,35,21.5C35,27.29,39.71,32,45.5,32S56,27.29,56,21.5S51.29,11,45.5,11z M34.605,7
		l-6.848,13.568L19.651,7H34.605z M18.843,7.715l8.065,13.383H20.98c-0.136-3.575-2.062-6.692-4.912-8.484L18.843,7.715z
		 M19.98,21.098h-8.719l4.314-7.615C18.123,15.102,19.844,17.895,19.98,21.098z M10.5,31C5.262,31,1,26.738,1,21.5S5.262,12,10.5,12
		c1.51,0,2.934,0.364,4.204,0.993l-4.736,8.358c-0.088,0.154-0.087,0.344,0.003,0.498c0.089,0.153,0.254,0.248,0.432,0.15h9.567
		C19.659,27.057,15.537,31,10.5,31z M45.5,31c-5.238,0-9.5-4.262-9.5-9.5c0-3.157,1.554-5.952,3.932-7.68l5.247,8.051
		c0.096,0.146,0.256,0.227,0.419,0.227c0.094,0,0.188-0.026,0.273-0.081c0.23-0.15,0.296-0.461,0.146-0.692l-5.247-8.051
		C42.165,12.468,43.777,12,45.5,12c5.238,0,9.5,4.262,9.5,9.5S50.738,31,45.5,31z"/>
</g>
</svg>
