<?xml version="1.0" encoding="UTF-8" standalone="no"?>
<svg width="200px" height="200px" viewBox="0 0 200 200" version="1.1" xmlns="http://www.w3.org/2000/svg" xmlns:xlink="http://www.w3.org/1999/xlink" xmlns:sketch="http://www.bohemiancoding.com/sketch/ns">
    <g id="Page-1" stroke="none" stroke-width="1" fill="none" fill-rule="evenodd" sketch:type="MSPage">
        <g id="edp-tiny" sketch:type="MSArtboardGroup">
            <g id="Group" sketch:type="MSLayerGroup" transform="translate(5.000000, 5.000000)">
                <path d="M55,30 C63.2842712,30 70,23.2842712 70,15 C70,6.71572875 63.2842712,0 55,0 C46.7157288,0 40,6.71572875 40,15 C40,23.2842712 46.7157288,30 55,30 Z M55,70 C63.2842712,70 70,63.2842712 70,55 C70,46.7157288 63.2842712,40 55,40 C46.7157288,40 40,46.7157288 40,55 C40,63.2842712 46.7157288,70 55,70 Z M55,110 C63.2842712,110 70,103.284271 70,95 C70,86.7157288 63.2842712,80 55,80 C46.7157288,80 40,86.7157288 40,95 C40,103.284271 46.7157288,110 55,110 Z M55,150 C63.2842712,150 70,143.284271 70,135 C70,126.715729 63.2842712,120 55,120 C46.7157288,120 40,126.715729 40,135 C40,143.284271 46.7157288,150 55,150 Z M55,190 C63.2842712,190 70,183.284271 70,175 C70,166.715729 63.2842712,160 55,160 C46.7157288,160 40,166.715729 40,175 C40,183.284271 46.7157288,190 55,190 Z M95,190 C103.284271,190 110,183.284271 110,175 C110,166.715729 103.284271,160 95,160 C86.7157288,160 80,166.715729 80,175 C80,183.284271 86.7157288,190 95,190 Z M135,150 C143.284271,150 150,143.284271 150,135 C150,126.715729 143.284271,120 135,120 C126.715729,120 120,126.715729 120,135 C120,143.284271 126.715729,150 135,150 Z M135,110 C143.284271,110 150,103.284271 150,95 C150,86.7157288 143.284271,80 135,80 C126.715729,80 120,86.7157288 120,95 C120,103.284271 126.715729,110 135,110 Z M135,70 C143.284271,70 150,63.2842712 150,55 C150,46.7157288 143.284271,40 135,40 C126.715729,40 120,46.7157288 120,55 C120,63.2842712 126.715729,70 135,70 Z M95,30 C103.284271,30 110,23.2842712 110,15 C110,6.71572875 103.284271,0 95,0 C86.7157288,0 80,6.71572875 80,15 C80,23.2842712 86.7157288,30 95,30 Z" id="D" fill-opacity="0.5" fill="#4B81BD" sketch:type="MSShapeGroup"></path>
                <path d="M15,30 C23.2842712,30 30,23.2842712 30,15 C30,6.71572875 23.2842712,0 15,0 C6.71572875,0 0,6.71572875 0,15 C0,23.2842712 6.71572875,30 15,30 Z M55,30 C63.2842712,30 70,23.2842712 70,15 C70,6.71572875 63.2842712,0 55,0 C46.7157288,0 40,6.71572875 40,15 C40,23.2842712 46.7157288,30 55,30 Z M95,30 C103.284271,30 110,23.2842712 110,15 C110,6.71572875 103.284271,0 95,0 C86.7157288,0 80,6.71572875 80,15 C80,23.2842712 86.7157288,30 95,30 Z M15,70 C23.2842712,70 30,63.2842712 30,55 C30,46.7157288 23.2842712,40 15,40 C6.71572875,40 0,46.7157288 0,55 C0,63.2842712 6.71572875,70 15,70 Z M15,110 C23.2842712,110 30,103.284271 30,95 C30,86.7157288 23.2842712,80 15,80 C6.71572875,80 0,86.7157288 0,95 C0,103.284271 6.71572875,110 15,110 Z M55,110 C63.2842712,110 70,103.284271 70,95 C70,86.7157288 63.2842712,80 55,80 C46.7157288,80 40,86.7157288 40,95 C40,103.284271 46.7157288,110 55,110 Z M95,110 C103.284271,110 110,103.284271 110,95 C110,86.7157288 103.284271,80 95,80 C86.7157288,80 80,86.7157288 80,95 C80,103.284271 86.7157288,110 95,110 Z M15,150 C23.2842712,150 30,143.284271 30,135 C30,126.715729 23.2842712,120 15,120 C6.71572875,120 0,126.715729 0,135 C0,143.284271 6.71572875,150 15,150 Z M15,190 C23.2842712,190 30,183.284271 30,175 C30,166.715729 23.2842712,160 15,160 C6.71572875,160 0,166.715729 0,175 C0,183.284271 6.71572875,190 15,190 Z M55,190 C63.2842712,190 70,183.284271 70,175 C70,166.715729 63.2842712,160 55,160 C46.7157288,160 40,166.715729 40,175 C40,183.284271 46.7157288,190 55,190 Z M95,190 C103.284271,190 110,183.284271 110,175 C110,166.715729 103.284271,160 95,160 C86.7157288,160 80,166.715729 80,175 C80,183.284271 86.7157288,190 95,190 Z" id="E" fill-opacity="0.5" fill="#4B81BD" sketch:type="MSShapeGroup"></path>
                <path d="M95,70 C103.284271,70 110,63.2842712 110,55 C110,46.7157288 103.284271,40 95,40 C86.7157288,40 80,46.7157288 80,55 C80,63.2842712 86.7157288,70 95,70 Z M95,30 C103.284271,30 110,23.2842712 110,15 C110,6.71572875 103.284271,0 95,0 C86.7157288,0 80,6.71572875 80,15 C80,23.2842712 86.7157288,30 95,30 Z M135,30 C143.284271,30 150,23.2842712 150,15 C150,6.71572875 143.284271,0 135,0 C126.715729,0 120,6.71572875 120,15 C120,23.2842712 126.715729,30 135,30 Z M175,30 C183.284271,30 190,23.2842712 190,15 C190,6.71572875 183.284271,0 175,0 C166.715729,0 160,6.71572875 160,15 C160,23.2842712 166.715729,30 175,30 Z M175,70 C183.284271,70 190,63.2842712 190,55 C190,46.7157288 183.284271,40 175,40 C166.715729,40 160,46.7157288 160,55 C160,63.2842712 166.715729,70 175,70 Z M175,110 C183.284271,110 190,103.284271 190,95 C190,86.7157288 183.284271,80 175,80 C166.715729,80 160,86.7157288 160,95 C160,103.284271 166.715729,110 175,110 Z M135,110 C143.284271,110 150,103.284271 150,95 C150,86.7157288 143.284271,80 135,80 C126.715729,80 120,86.7157288 120,95 C120,103.284271 126.715729,110 135,110 Z M95,110 C103.284271,110 110,103.284271 110,95 C110,86.7157288 103.284271,80 95,80 C86.7157288,80 80,86.7157288 80,95 C80,103.284271 86.7157288,110 95,110 Z M95,150 C103.284271,150 110,143.284271 110,135 C110,126.715729 103.284271,120 95,120 C86.7157288,120 80,126.715729 80,135 C80,143.284271 86.7157288,150 95,150 Z M95,190 C103.284271,190 110,183.284271 110,175 C110,166.715729 103.284271,160 95,160 C86.7157288,160 80,166.715729 80,175 C80,183.284271 86.7157288,190 95,190 Z" id="P" fill-opacity="0.5" fill="#4B81BD" sketch:type="MSShapeGroup"></path>
                <path d="M175,190 L190,190 L190,120 L160,120 L160,160 L120,160 L120,190 L175,190 Z" id="Arrow" fill="#E18F82" sketch:type="MSShapeGroup"></path>
            </g>
        </g>
    </g>
</svg>