<?xml version="1.0" encoding="utf-8"?>
<!-- Generator: Adobe Illustrator 15.0.0, SVG Export Plug-In . SVG Version: 6.00 Build 0)  -->
<!DOCTYPE svg PUBLIC "-//W3C//DTD SVG 1.1//EN" "http://www.w3.org/Graphics/SVG/1.1/DTD/svg11.dtd">
<svg version="1.1" id="图层_1" xmlns="http://www.w3.org/2000/svg" xmlns:xlink="http://www.w3.org/1999/xlink" x="0px" y="0px"
	 width="48px" height="46.5px" viewBox="0 0 48 46.5" enable-background="new 0 0 48 46.5" xml:space="preserve">
<g>
	<path fill="#58595B" d="M0,39.865C0,43.523,2.243,46.5,5,46.5h38c2.757,0,5-2.977,5-6.635V12H0V39.865z M22,24h8
		c0.553,0,1,0.447,1,1s-0.447,1-1,1h-8c-0.553,0-1-0.447-1-1S21.447,24,22,24z M10.293,19.707c-0.391-0.391-0.391-1.023,0-1.414
		s1.023-0.391,1.414,0l5,5c0.391,0.391,0.391,1.023,0,1.414l-5,5C11.512,29.902,11.256,30,11,30s-0.512-0.098-0.707-0.293
		c-0.391-0.391-0.391-1.023,0-1.414L14.586,24L10.293,19.707z"/>
	<path fill="#58595B" d="M43,0H5C2.243,0,0,2.243,0,5v5h48V5C48,2.243,45.757,0,43,0z M8,8C6.897,8,6,7.103,6,6c0-1.103,0.897-2,2-2
		s2,0.897,2,2C10,7.103,9.103,8,8,8z M14,8c-1.103,0-2-0.897-2-2c0-1.103,0.897-2,2-2s2,0.897,2,2C16,7.103,15.103,8,14,8z M20,8
		c-1.103,0-2-0.897-2-2c0-1.103,0.897-2,2-2s2,0.897,2,2C22,7.103,21.103,8,20,8z"/>
</g>
</svg>
