<?xml version="1.0" encoding="utf-8"?>
<!-- Generator: Adobe Illustrator 15.0.0, SVG Export Plug-In . SVG Version: 6.00 Build 0)  -->
<!DOCTYPE svg PUBLIC "-//W3C//DTD SVG 1.1//EN" "http://www.w3.org/Graphics/SVG/1.1/DTD/svg11.dtd">
<svg version="1.1" id="图层_1" xmlns="http://www.w3.org/2000/svg" xmlns:xlink="http://www.w3.org/1999/xlink" x="0px" y="0px"
	 width="26.959px" height="29.047px" viewBox="0 0 26.959 29.047" enable-background="new 0 0 26.959 29.047" xml:space="preserve">
<g>
	<path fill="#58595B" d="M15.788,28.239c0.271,0.499,0.79,0.809,1.354,0.809h6.744c0.629,0,1.189-0.377,1.43-0.961
		c0.011-0.027,0.02-0.055,0.026-0.084l1.604-7.054c0.009-0.038,0.013-0.077,0.013-0.116c0-0.742-0.39-1.343-0.971-1.522
		l-5.364-1.924V12.12c0-0.943-0.519-1.553-1.32-1.553h-1.529c-0.81,0-1.375,0.638-1.375,1.553v8.281l-0.873-1.044
		c-0.286-0.365-0.768-0.59-1.266-0.59l0,0l-1.046,0.02c-0.551,0-1.063,0.292-1.342,0.762c-0.278,0.473-0.289,1.062-0.029,1.538
		L15.788,28.239z"/>
</g>
<g>
	<path fill="#58595B" d="M11.37,19.022c0.273-0.461,0.755-0.753,1.286-0.813v-0.13h-5.13v2.228h3.655
		C11.076,19.878,11.139,19.414,11.37,19.022z"/>
	<path fill="#58595B" d="M15.491,6.278l-6.985,3.911c-0.653,0.363-0.979,0.823-0.979,1.379v3.784h4.726V11.15l6.885-3.936
		c0.697-0.396,1.046-0.848,1.046-1.354V1.405c0-0.413-0.354-0.75-1.063-1.012C18.411,0.131,17.494,0,16.369,0H3.814
		C2.712,0,1.8,0.131,1.08,0.393S0,0.992,0,1.405v4.607h4.691V1.557h10.8V6.278z"/>
</g>
</svg>
